<svg xmlns="http://www.w3.org/2000/svg" xmlns:xlink="http://www.w3.org/1999/xlink" version="1.1" x="0px" y="0px" viewBox="0 0 64 64" style="enable-background:new 0 0 64 64;" xml:space="preserve"><g><rect x="21.6" y="50.3" transform="matrix(0.866 -0.5 0.5 0.866 -24.7048 18.4775)" width="1.1" height="10.1"/><rect x="36.8" y="54.8" transform="matrix(0.5 -0.866 0.866 0.5 -26.9863 63.9318)" width="10.1" height="1.1"/><path d="M29.9,36.3c0,0-0.1,0-0.1,0c-0.5,0-1,0.4-1.1,0.9c-0.1,0.5-0.2,1-0.3,1.6c-0.8,3.9-2,9.6-5.7,12.1l3.7,6.3l4-2   c0.2-0.1,0.4-0.3,0.5-0.5c0.1-0.2,0.2-0.4,0.2-0.7l0-16.6C31,36.8,30.5,36.3,29.9,36.3z"/><path d="M35.7,38.7c-0.1-0.6-0.2-1.1-0.3-1.6c-0.1-0.5-0.6-0.9-1.2-0.9c0,0,0,0-0.1,0c-0.6,0.1-1,0.6-1,1.2l0,16.5   c0,0.2,0.1,0.5,0.2,0.7c0.1,0.2,0.3,0.4,0.5,0.5l4,2.1l3.7-6.3C37.7,48.4,36.5,42.6,35.7,38.7z"/><path d="M32,4C18.2,4,7,15.2,7,29c0,8.3,4,15.9,10.8,20.6l2.2-1.3c0.2-0.1,0.5-0.2,0.8-0.1c0.3,0.1,0.5,0.2,0.6,0.5l0.2,0.3   c2.9-2.1,4-7.2,4.7-10.7c0.1-0.6,0.2-1.2,0.4-1.6c0.4-1.6,1.9-2.7,3.5-2.5c0.7,0.1,1.3,0.4,1.8,0.9c0.5-0.5,1.1-0.8,1.8-0.9   c0.1,0,0.2,0,0.4,0c1.5,0,2.8,1,3.2,2.5c0.1,0.5,0.2,1,0.4,1.6c0.7,3.5,1.8,8.7,4.7,10.8l0.2-0.3c0.1-0.2,0.4-0.4,0.6-0.5   c0.3-0.1,0.6,0,0.8,0.1l2.2,1.3C53,44.9,57,37.3,57,29C57,15.2,45.8,4,32,4z M24.4,22.7c-1.1,0.5-2.3,0.9-3.4,1.2c0,0,0,0-0.1,0v0   c-1.3,0.3-2.6,0.5-3.9,0.5c-1.3,0-2.5-0.1-3.7-0.4c0,0-0.1,0-0.1,0c-1.1-0.3-2.3-0.7-3.5-1.2c-0.5-0.2-0.7-0.9-0.5-1.4   c0.2-0.5,0.9-0.7,1.4-0.5c1,0.5,2.1,0.9,3.1,1.1v0c0,0,0.1,0,0.1,0c2.2,0.5,4.4,0.5,6.6,0c0,0,0.1,0,0.1,0c1-0.2,2-0.6,3.1-1.1   c0.5-0.2,1.1,0,1.4,0.5C25.2,21.8,25,22.4,24.4,22.7z M54,22.7c-1.2,0.5-2.3,0.9-3.5,1.2c0,0,0,0-0.1,0c-1.3,0.3-2.6,0.5-3.9,0.5   c-1.3,0-2.5-0.2-3.8-0.5v0c0,0,0,0-0.1,0c-1.2-0.3-2.3-0.7-3.4-1.2c-0.5-0.2-0.7-0.9-0.5-1.4c0.2-0.5,0.9-0.7,1.4-0.5   c1,0.5,2,0.9,3.1,1.1c0,0,0,0,0.1,0c2.2,0.5,4.4,0.5,6.6,0c0,0,0,0,0.1,0v0c1-0.2,2-0.6,3.1-1.1c0.5-0.2,1.1,0,1.4,0.5   C54.8,21.8,54.6,22.4,54,22.7z"/></g></svg>
